<?xml version="1.0" standalone="no"?>
<!DOCTYPE svg PUBLIC "-//W3C//DTD SVG 20010904//EN"
 "http://www.w3.org/TR/2001/REC-SVG-20010904/DTD/svg10.dtd">
<svg version="1.0" xmlns="http://www.w3.org/2000/svg"
 width="512.000000pt" height="512.000000pt" viewBox="0 0 512.000000 512.000000"
 preserveAspectRatio="xMidYMid meet">
<metadata>
Created by potrace 1.16, written by Peter Selinger 2001-2019
</metadata>
<g transform="translate(0.000000,512.000000) scale(0.100000,-0.100000)"
fill="#000000" stroke="none">
<path d="M2509 3976 c-34 -39 -116 -175 -97 -159 24 20 130 172 126 181 -1 4
-15 -6 -29 -22z"/>
<path d="M2563 3905 c0 -27 2 -38 4 -22 2 15 2 37 0 50 -2 12 -4 0 -4 -28z"/>
<path d="M2507 3902 c-15 -24 -32 -66 -37 -95 -28 -147 -89 -360 -121 -419 -8
-16 -8 -22 2 -29 18 -11 17 -13 92 196 68 188 101 314 95 361 l-3 28 -28 -42z"/>
<path d="M2780 3926 c0 -6 235 -139 365 -207 51 -26 88 -50 82 -52 -7 -2 3 -4
21 -4 17 0 32 2 32 3 0 1 -69 38 -152 82 -84 44 -197 103 -250 131 -54 29 -98
50 -98 47z"/>
<path d="M2022 3766 c-107 -57 -190 -106 -185 -108 4 -3 73 30 153 73 80 43
149 79 154 79 10 0 -136 -93 -216 -138 -26 -15 -48 -31 -48 -35 0 -11 51 19
208 119 64 42 116 79 115 84 -1 4 3 7 10 6 14 -1 23 17 10 21 -4 1 -95 -45
-201 -101z m168 69 c0 -2 -10 -9 -22 -15 -22 -11 -22 -10 -4 4 21 17 26 19 26
11z"/>
<path d="M2801 3729 c96 -128 158 -227 145 -232 -8 -3 -20 -16 -27 -28 l-11
-22 33 23 c19 13 35 24 37 26 5 3 -178 253 -191 261 -7 4 0 -9 14 -28z"/>
<path d="M2294 3653 c-134 -145 -170 -192 -61 -80 87 89 164 177 155 177 -2 0
-44 -44 -94 -97z"/>
<path d="M2515 3703 c-4 -21 -29 -104 -56 -184 -27 -81 -49 -155 -49 -165 0
-11 9 -25 20 -31 18 -12 20 -9 31 30 28 105 60 258 65 320 7 72 1 91 -11 30z"/>
<path d="M2530 3608 c-7 -56 -23 -147 -36 -202 l-24 -101 23 -19 22 -18 7 93
c3 52 12 149 18 217 7 67 11 125 8 127 -3 3 -11 -41 -18 -97z"/>
<path d="M2590 3642 c0 -28 4 -53 10 -57 5 -3 7 15 3 47 -8 70 -13 74 -13 10z"/>
<path d="M3330 3657 c0 -2 11 -30 24 -63 13 -32 31 -93 41 -134 16 -69 22 -80
78 -137 34 -35 66 -63 71 -63 6 0 -19 29 -54 65 -62 63 -65 68 -91 166 -16 59
-22 96 -15 88 7 -8 52 -60 100 -117 l88 -103 159 -79 c87 -44 164 -80 171 -79
7 0 -62 38 -154 84 l-167 85 -97 112 c-53 62 -106 128 -118 145 -18 28 -36 42
-36 30z"/>
<path d="M2620 3644 c0 -5 16 -70 36 -144 l37 -134 -21 -38 c-11 -21 -17 -38
-13 -38 5 0 35 18 59 36 4 2 -88 316 -94 323 -2 2 -4 0 -4 -5z"/>
<path d="M3227 3600 c-14 -11 -42 -46 -63 -77 -21 -32 -61 -83 -89 -113 -27
-30 -42 -48 -31 -40 10 8 65 67 123 132 98 112 118 143 60 98z"/>
<path d="M1737 3580 c-15 -25 -63 -53 -255 -150 -130 -65 -231 -119 -224 -119
8 -1 89 36 180 81 282 139 283 139 273 119 -9 -16 -52 -216 -55 -253 0 -9 3
-18 9 -20 10 -3 97 336 92 360 -1 8 -10 -1 -20 -18z"/>
<path d="M1785 3573 c-4 -21 -7 -45 -8 -53 -2 -8 11 -42 28 -75 17 -33 47
-113 66 -177 l34 -117 56 -15 c30 -9 58 -16 62 -16 4 0 0 18 -9 40 -28 71 -8
67 26 -5 27 -56 34 -65 38 -47 4 25 -62 132 -82 132 -6 0 -52 81 -101 181 -50
99 -93 183 -97 185 -4 3 -10 -12 -13 -33z"/>
<path d="M1886 3517 c3 -10 9 -15 12 -12 3 3 0 11 -7 18 -10 9 -11 8 -5 -6z"/>
<path d="M3003 3410 c0 -36 2 -50 4 -32 2 17 2 47 0 65 -2 17 -4 3 -4 -33z"/>
<path d="M2955 3411 c-17 -53 -85 -137 -129 -160 -14 -8 -26 -21 -26 -29 0
-18 4 -16 92 48 l76 54 4 66 c3 36 4 66 2 68 -1 2 -9 -19 -19 -47z"/>
<path d="M2140 3434 c0 -8 5 -12 10 -9 6 4 8 11 5 16 -9 14 -15 11 -15 -7z"/>
<path d="M2058 3433 c-36 -6 -35 -12 7 -53 l35 -34 0 47 c0 26 -3 46 -7 46 -5
-1 -20 -4 -35 -6z"/>
<path d="M1974 3395 c-5 -20 3 -45 31 -99 20 -39 45 -83 56 -96 l19 -25 0 45
c0 49 -30 119 -74 171 l-25 30 -7 -26z"/>
<path d="M2120 3384 c0 -21 5 -46 10 -54 7 -10 8 1 4 35 -8 62 -14 70 -14 19z"/>
<path d="M2212 3394 c17 -19 30 -50 38 -90 11 -56 16 -64 50 -83 l38 -21 11
44 c6 24 13 50 16 59 5 10 -13 25 -62 52 -37 21 -79 45 -93 54 l-25 15 27 -30z"/>
<path d="M2551 3343 c-1 -40 -1 -76 -2 -80 0 -4 4 -9 10 -11 13 -4 13 99 1
138 -6 18 -8 4 -9 -47z"/>
<path d="M2060 3334 c0 -5 28 -27 62 -49 34 -22 89 -61 121 -87 33 -27 64 -48
69 -48 4 0 8 -6 8 -14 0 -8 10 -27 23 -41 l22 -26 33 25 34 24 -74 40 c-73 41
-234 138 -275 168 -13 9 -23 13 -23 8z"/>
<path d="M2611 3316 c-7 -12 -11 -33 -9 -45 3 -20 5 -20 24 -7 15 11 20 22 16
45 -5 37 -14 39 -31 7z"/>
<path d="M3016 3332 c-3 -6 -44 -36 -91 -68 -47 -32 -83 -60 -80 -62 6 -6 171
104 181 120 3 5 4 12 1 14 -3 3 -8 1 -11 -4z"/>
<path d="M2381 3272 c-24 -91 -25 -85 22 -110 l43 -23 57 33 c31 18 55 37 54
41 -1 4 -39 28 -84 52 l-82 45 -10 -38z"/>
<path d="M2670 3264 c-30 -20 -59 -40 -63 -44 -5 -4 8 -26 28 -48 l36 -41 48
25 48 25 -14 52 c-9 29 -18 55 -22 59 -4 4 -31 -9 -61 -28z"/>
<path d="M3022 3227 c-7 -36 -12 -76 -12 -91 0 -15 -5 -37 -11 -48 -10 -19 -9
-20 12 -15 13 4 30 7 38 7 11 0 12 18 7 98 -4 53 -11 100 -15 105 -4 4 -13
-21 -19 -56z"/>
<path d="M1234 3245 c16 -104 25 -223 20 -257 -5 -29 -3 -38 7 -38 10 0 10 -3
3 -8 -12 -7 -1 -130 14 -162 9 -18 8 -251 -1 -340 -6 -65 -6 -65 9 15 9 44 16
138 16 210 1 128 4 133 29 45 7 -25 28 -79 47 -120 19 -41 35 -91 35 -111 l2
-37 23 42 c13 22 26 43 28 45 3 3 34 -24 69 -59 86 -85 86 -104 2 -168 -29
-21 -80 -53 -114 -71 -59 -32 -112 -76 -101 -86 2 -3 25 8 50 24 26 16 50 26
54 23 4 -4 5 -2 1 3 -3 6 3 17 15 24 16 10 19 10 13 -1 -4 -7 2 -3 12 8 10 12
34 30 53 39 35 17 250 155 250 160 0 1 -51 43 -112 93 -213 171 -228 188 -302
352 -59 129 -66 141 -66 106 0 -68 -8 -34 -14 59 -6 95 -29 231 -41 243 -4 4
-5 -11 -1 -33z m63 -397 c-3 -7 -5 -2 -5 12 0 14 2 19 5 13 2 -7 2 -19 0 -25z"/>
<path d="M2928 3199 c-46 -45 -73 -74 -60 -64 12 10 22 13 22 7 0 -22 -34 -81
-49 -86 -9 -3 13 -3 49 0 36 3 69 9 73 13 7 7 57 211 51 211 -2 0 -40 -37 -86
-81z"/>
<path d="M1360 3261 c8 -5 40 -11 70 -14 l55 -6 -50 14 c-60 16 -98 19 -75 6z"/>
<path d="M2111 3174 c3 -52 8 -96 11 -99 7 -7 200 -36 205 -31 14 14 -17 54
-96 125 -132 118 -127 118 -120 5z"/>
<path d="M3582 3245 c5 -5 -1 -14 -11 -22 -11 -7 -59 -62 -107 -121 -48 -59
-94 -115 -102 -124 -8 -10 -13 -18 -10 -18 2 0 45 48 95 108 50 59 104 119
120 135 l29 27 138 -36 c76 -19 140 -33 143 -30 7 6 15 4 -147 46 -69 18 -132
35 -140 38 -8 3 -12 1 -8 -3z"/>
<path d="M1498 3233 c6 -2 18 -2 25 0 6 3 1 5 -13 5 -14 0 -19 -2 -12 -5z"/>
<path d="M1545 3220 c-3 -5 -21 -10 -38 -11 -75 -1 -74 -12 9 -67 134 -89 161
-120 48 -53 l-102 59 24 -35 c13 -20 24 -40 24 -45 0 -12 82 -128 135 -193 23
-27 54 -69 69 -92 27 -40 31 -42 91 -48 35 -4 69 -5 75 -3 12 4 -194 303 -284
414 -37 44 -44 59 -35 70 8 9 8 14 1 14 -6 0 -14 -4 -17 -10z"/>
<path d="M3487 3206 c-9 -7 -36 -17 -60 -20 -26 -4 -37 -10 -29 -15 22 -14 84
3 100 27 17 25 14 27 -11 8z"/>
<path d="M1310 3164 c-9 -22 -8 -36 4 -64 8 -19 18 -46 22 -60 3 -14 12 -32
18 -40 41 -50 95 -152 98 -184 l3 -37 33 56 33 55 -41 75 c-23 41 -46 75 -51
75 -6 0 -7 5 -4 10 3 6 2 10 -2 10 -5 0 -16 12 -25 28 -9 15 -30 44 -47 66
l-31 38 -10 -28z"/>
<path d="M2814 3162 c-6 -4 -8 -15 -5 -25 6 -16 9 -16 31 8 22 23 22 25 4 25
-10 0 -24 -4 -30 -8z"/>
<path d="M2495 3088 c-32 -40 -73 -89 -91 -108 l-33 -35 59 -22 58 -21 13 51
c6 29 23 85 36 126 13 40 22 75 20 78 -2 2 -30 -29 -62 -69z"/>
<path d="M1655 3140 c13 -22 107 -65 249 -114 l155 -54 6 30 c5 20 1 41 -11
63 -16 30 -26 36 -98 54 -45 11 -92 24 -106 28 l-24 6 26 -33 c19 -25 51 -43
120 -71 97 -40 101 -51 7 -23 -30 9 -61 18 -69 19 -8 2 -17 4 -20 5 -3 1 -13
1 -24 0 -10 -1 -16 3 -12 8 3 5 -14 15 -37 22 -23 7 -70 25 -105 41 -34 15
-60 24 -57 19z"/>
<path d="M2610 3146 c0 -3 15 -36 34 -73 18 -37 37 -79 41 -93 13 -43 23 -50
58 -38 35 12 58 28 40 28 -6 0 -48 41 -92 90 -45 50 -81 88 -81 86z"/>
<path d="M2723 3133 c-18 -9 -33 -19 -33 -22 1 -3 13 -21 29 -39 39 -46 61
-36 61 29 0 54 -6 57 -57 32z"/>
<path d="M2443 3101 c-28 -21 -62 -44 -74 -53 l-23 -15 31 -5 c28 -4 37 2 83
54 28 32 48 58 43 57 -4 0 -31 -18 -60 -38z"/>
<path d="M3399 3104 c-45 -48 -236 -204 -310 -255 -33 -22 -59 -42 -59 -44 0
-8 72 -85 80 -85 3 0 53 60 110 133 57 72 129 161 160 197 31 36 60 71 64 78
15 25 -11 11 -45 -24z"/>
<path d="M2593 3009 c3 -55 8 -103 10 -106 3 -3 22 0 42 7 32 11 36 15 30 37
-11 45 -68 163 -78 163 -6 0 -8 -36 -4 -101z"/>
<path d="M2533 3010 c-21 -89 -17 -124 15 -118 21 4 27 67 14 148 l-8 55 -21
-85z"/>
<path d="M3115 3070 c-13 -6 -15 -9 -5 -9 8 0 22 4 30 9 18 12 2 12 -25 0z"/>
<path d="M3125 3045 c-22 -8 -31 -14 -20 -14 11 0 34 6 50 14 38 17 22 17 -30
0z"/>
<path d="M1869 2941 c59 -58 133 -135 164 -171 l56 -65 1 116 c0 64 3 131 7
149 4 24 3 31 -5 26 -7 -4 -12 -18 -12 -32 0 -13 -2 -24 -4 -24 -2 0 -44 15
-93 34 -49 19 -119 43 -155 54 l-66 19 107 -106z"/>
<path d="M1740 2998 c17 -24 66 -93 108 -155 73 -108 78 -113 118 -119 91 -13
88 -7 -78 159 -156 155 -209 197 -148 115z"/>
<path d="M2180 3036 c0 -7 115 -66 130 -66 5 0 10 11 10 24 0 21 -6 24 -57 31
-31 4 -62 9 -70 12 -7 3 -13 2 -13 -1z"/>
<path d="M2937 3029 c-45 -10 -117 -46 -117 -58 0 -21 17 -18 79 14 107 55
113 62 38 44z"/>
<path d="M2790 3021 c-22 -4 -31 -9 -23 -14 12 -7 93 9 93 18 0 6 -23 5 -70
-4z"/>
<path d="M2150 3014 c1 -12 132 -167 146 -171 11 -4 27 64 19 78 -3 4 -31 22
-63 39 -31 18 -67 40 -79 48 -13 8 -23 10 -23 6z"/>
<path d="M3034 2987 c-90 -137 -114 -175 -114 -180 0 -9 74 14 87 26 11 12 57
176 51 183 -2 1 -13 -12 -24 -29z"/>
<path d="M2340 2990 c0 -22 20 -26 38 -8 19 19 14 28 -13 28 -18 0 -25 -5 -25
-20z"/>
<path d="M2979 2988 c-12 -23 -12 -23 10 -4 23 21 26 26 11 26 -5 0 -15 -10
-21 -22z"/>
<path d="M3113 2993 c-27 -11 -35 -22 -49 -70 -9 -32 -19 -62 -22 -67 -8 -13
13 0 105 67 46 34 80 63 78 66 -3 2 -10 0 -16 -6 -13 -13 -39 -7 -54 12 -8 9
-17 9 -42 -2z"/>
<path d="M2133 2980 c2 -8 17 -74 31 -145 15 -72 29 -141 32 -154 5 -21 8 -18
39 30 19 30 35 59 35 64 0 15 -85 155 -115 190 -15 17 -25 23 -22 15z"/>
<path d="M2900 2958 c-42 -26 -56 -39 -58 -61 -2 -15 0 -27 5 -27 4 0 32 22
62 48 70 62 65 84 -9 40z"/>
<path d="M2913 2899 c-56 -47 -60 -54 -51 -75 6 -13 14 -24 17 -24 3 0 20 22
37 48 17 26 39 59 48 75 10 15 17 27 14 27 -2 0 -31 -23 -65 -51z"/>
<path d="M2116 2810 l2 -130 31 -35 c23 -27 31 -31 31 -18 0 19 -58 304 -63
309 -1 2 -2 -55 -1 -126z"/>
<path d="M2773 2883 l-32 -25 23 -32 c13 -17 29 -48 36 -68 16 -53 35 -49 25
5 -4 23 -10 65 -14 93 l-6 52 -32 -25z"/>
<path d="M3290 2895 c-7 -9 -11 -17 -9 -20 3 -2 10 5 17 15 14 24 10 26 -8 5z"/>
<path d="M2400 2896 c0 -3 15 -13 33 -22 41 -21 88 -60 81 -67 -3 -3 0 -5 8
-4 30 5 16 22 -51 59 -39 22 -71 37 -71 34z"/>
<path d="M2663 2876 c-53 -22 -75 -36 -56 -36 14 0 123 49 123 55 0 8 -11 5
-67 -19z"/>
<path d="M2334 2863 c-3 -15 -8 -35 -10 -43 -12 -36 -15 -90 -6 -106 9 -16 11
-15 21 5 17 31 27 156 13 165 -7 4 -14 -4 -18 -21z"/>
<path d="M3683 2883 c9 -2 23 -2 30 0 6 3 -1 5 -18 5 -16 0 -22 -2 -12 -5z"/>
<path d="M3647 2712 c-142 -96 -256 -176 -254 -179 3 -2 94 55 202 127 108 72
205 133 215 135 16 3 20 -7 30 -68 7 -40 18 -103 25 -142 8 -38 26 -155 41
-260 14 -104 28 -192 31 -195 6 -6 -4 98 -27 259 -15 110 -15 140 -4 255 7 72
15 150 17 173 3 24 1 41 -3 38 -3 -2 -13 -70 -20 -150 -7 -80 -14 -144 -16
-142 -2 1 -12 59 -24 127 l-21 125 38 32 c86 72 14 30 -230 -135z"/>
<path d="M2378 2855 c2 -13 -1 -47 -7 -76 -6 -28 -9 -54 -7 -56 2 -3 15 0 28
6 22 11 22 11 3 -3 -60 -45 -60 -45 -44 -46 23 0 100 60 92 72 -3 7 -1 8 5 4
35 -21 -16 84 -51 107 -23 15 -24 15 -19 -8z"/>
<path d="M3588 2873 c12 -2 30 -2 40 0 9 3 -1 5 -23 4 -22 0 -30 -2 -17 -4z"/>
<path d="M2249 2855 c14 -30 40 -61 41 -50 0 6 -12 24 -26 40 -14 17 -21 21
-15 10z"/>
<path d="M2531 2851 c14 -11 26 -15 28 -9 4 12 -17 28 -38 28 -8 0 -3 -8 10
-19z"/>
<path d="M3493 2863 c9 -2 25 -2 35 0 9 3 1 5 -18 5 -19 0 -27 -2 -17 -5z"/>
<path d="M2456 2816 c17 -31 30 -43 40 -39 12 4 7 14 -22 44 -21 22 -39 39
-40 39 -2 0 9 -20 22 -44z"/>
<path d="M3403 2853 c9 -2 25 -2 35 0 9 3 1 5 -18 5 -19 0 -27 -2 -17 -5z"/>
<path d="M2698 2813 l-25 -39 63 -26 c35 -15 64 -24 64 -20 -1 15 -57 116 -67
119 -5 2 -21 -14 -35 -34z"/>
<path d="M3318 2843 c12 -2 30 -2 40 0 9 3 -1 5 -23 4 -22 0 -30 -2 -17 -4z"/>
<path d="M2659 2821 c-13 -11 -21 -22 -17 -26 9 -9 26 2 38 26 13 24 8 24 -21
0z"/>
<path d="M2850 2795 c0 -5 5 -17 10 -25 5 -8 10 -10 10 -5 0 6 -5 17 -10 25
-5 8 -10 11 -10 5z"/>
<path d="M2930 2781 c-54 -21 -55 -31 -9 -107 l34 -55 7 39 c4 22 13 63 22 91
17 58 15 59 -54 32z"/>
<path d="M2470 2729 c-47 -33 -107 -71 -135 -85 l-50 -26 30 26 c17 14 25 25
19 26 -17 0 -65 -40 -59 -50 3 -4 -5 -11 -18 -15 -12 -3 -17 -8 -11 -11 12 -5
190 52 267 85 46 20 47 21 47 66 0 25 -1 45 -2 45 -2 -1 -41 -28 -88 -61z"/>
<path d="M3783 2762 c-11 -15 -52 -74 -90 -132 l-71 -105 -68 -24 c-38 -14
-63 -26 -56 -29 7 -2 42 8 77 22 36 14 67 26 69 26 2 0 32 -45 66 -100 33 -55
64 -100 67 -100 3 0 -1 10 -9 23 -8 12 -38 61 -67 109 l-52 88 82 120 c45 66
80 122 77 125 -2 3 -14 -8 -25 -23z"/>
<path d="M3016 2759 c-15 -42 -36 -142 -32 -146 6 -6 106 75 106 86 0 4 -16
22 -35 41 -25 24 -36 30 -39 19z"/>
<path d="M2663 2752 c8 -12 137 -75 143 -69 3 3 -17 17 -46 32 -63 32 -103 47
-97 37z"/>
<path d="M2582 2725 c2 -19 10 -31 21 -33 24 -5 22 21 -4 44 -21 19 -21 19
-17 -11z"/>
<path d="M2262 2713 c-18 -26 -52 -98 -52 -111 0 -4 20 14 45 38 45 44 52 63
36 88 -6 11 -13 7 -29 -15z"/>
<path d="M1489 2707 c7 -10 23 -17 34 -17 11 0 55 -10 96 -21 180 -50 237
-111 180 -190 -14 -20 -16 -29 -7 -29 17 1 115 67 218 150 80 63 82 64 62 81
-21 17 -56 20 -437 35 -148 7 -159 6 -146 -9z"/>
<path d="M2845 2700 c-12 -19 5 -45 47 -75 l42 -29 -24 39 c-13 22 -29 48 -34
58 -12 19 -22 22 -31 7z"/>
<path d="M2700 2676 c0 -3 16 -13 35 -21 19 -8 51 -22 70 -30 47 -21 45 0 -2
24 -40 20 -103 36 -103 27z"/>
<path d="M3070 2641 c-25 -21 -43 -41 -40 -44 3 -3 69 -28 148 -56 118 -42
146 -49 162 -39 20 13 27 8 275 -161 50 -34 77 -50 60 -36 -44 38 -279 201
-317 221 -18 9 -79 48 -135 86 -56 37 -104 68 -105 68 -2 0 -23 -18 -48 -39z"/>
<path d="M2478 2635 c-42 -18 -101 -41 -132 -51 -31 -10 -56 -20 -56 -24 0 -3
15 -13 33 -22 17 -10 78 -42 135 -72 l102 -54 0 129 c0 71 -1 129 -2 128 -2 0
-37 -15 -80 -34z"/>
<path d="M2588 2590 c2 -44 7 -78 12 -75 4 3 13 -9 20 -25 7 -17 17 -33 22
-36 5 -3 63 20 129 52 l120 58 -133 53 c-73 29 -142 53 -153 53 -19 0 -20 -5
-17 -80z"/>
<path d="M2045 2602 c-27 -26 -66 -59 -85 -75 l-35 -27 41 20 c22 11 75 33
117 48 l77 28 -31 27 c-17 15 -32 27 -33 27 0 0 -23 -22 -51 -48z"/>
<path d="M2850 2612 c0 -6 9 -12 20 -15 11 -3 20 -3 20 -1 0 2 -9 8 -20 14
-11 6 -20 7 -20 2z"/>
<path d="M2996 2569 c19 -32 242 -164 294 -174 51 -10 69 -18 63 -28 -3 -6 -1
-7 6 -3 15 9 53 -3 46 -15 -3 -5 1 -6 9 -3 17 7 136 -44 136 -58 0 -5 5 -6 10
-3 6 3 10 1 10 -6 0 -7 3 -10 6 -7 3 3 47 -13 97 -36 51 -24 101 -46 112 -49
19 -6 19 -6 2 6 -10 7 -64 44 -120 82 -194 135 -213 144 -482 241 -142 51
-198 67 -189 53z"/>
<path d="M2066 2535 c-159 -69 -461 -249 -449 -268 4 -6 0 -8 -11 -4 -10 4
-19 1 -22 -8 -4 -8 -10 -13 -14 -10 -5 3 -11 1 -15 -4 -9 -16 23 -6 180 57
245 98 325 138 378 190 94 91 82 104 -47 47z m-226 -140 c0 -12 -196 -125
-217 -125 -6 0 207 129 215 130 1 0 2 -2 2 -5z"/>
<path d="M2190 2508 c0 -19 -3 -56 -6 -82 -7 -45 -6 -46 21 -46 24 0 26 3 21
23 -4 12 -11 47 -17 77 -13 66 -19 75 -19 28z"/>
<path d="M2224 2525 c3 -9 23 -41 45 -73 30 -44 53 -66 98 -89 50 -27 107 -83
108 -105 0 -3 4 -10 9 -15 6 -5 6 -2 1 6 -6 11 -2 10 16 -2 84 -60 0 39 -92
107 -31 22 -84 74 -119 114 -64 73 -77 84 -66 57z"/>
<path d="M2273 2524 c9 -10 33 -39 52 -63 34 -41 101 -101 114 -101 3 0 -26
32 -64 72 -47 48 -57 61 -30 41 44 -35 139 -131 115 -118 -8 5 10 -14 40 -42
52 -48 55 -50 58 -27 4 29 -46 104 -91 137 -50 37 -214 122 -194 101z"/>
<path d="M2885 2528 c-26 -15 -192 -170 -211 -197 -27 -38 1 -22 74 42 61 53
171 168 160 167 -1 0 -12 -6 -23 -12z"/>
<path d="M2980 2525 c0 -9 7 -47 16 -85 17 -78 4 -69 141 -88 44 -6 60 -5 56
2 -25 41 -56 74 -118 120 -92 69 -95 70 -95 51z"/>
<path d="M2878 2461 c-44 -51 -53 -67 -41 -70 10 -2 25 7 36 20 25 31 70 109
66 113 -2 2 -30 -27 -61 -63z"/>
<path d="M2155 2506 c-42 -59 -165 -246 -165 -250 0 -8 69 -8 108 0 28 6 32
11 37 53 4 25 13 78 22 118 16 76 15 103 -2 79z"/>
<path d="M2927 2447 c-18 -40 -31 -56 -39 -51 -9 5 -10 4 -3 -4 6 -6 29 -14
51 -18 l42 -6 -9 53 c-6 30 -11 61 -13 69 -1 8 -14 -11 -29 -43z"/>
<path d="M2693 2437 l-103 -51 0 -58 c0 -32 2 -58 4 -58 3 0 21 25 41 55 20
30 66 78 101 106 35 28 64 53 64 55 0 5 10 10 -107 -49z"/>
<path d="M2229 2454 c11 -41 29 -74 41 -74 4 0 17 -3 27 -7 13 -5 10 3 -12 28
-16 19 -38 46 -47 59 l-17 25 8 -31z"/>
<path d="M1396 2415 c-9 -26 -7 -32 5 -12 6 10 9 21 6 23 -2 3 -7 -2 -11 -11z"/>
<path d="M2047 2413 c-4 -3 -7 -11 -7 -17 0 -6 5 -5 12 2 6 6 9 14 7 17 -3 3
-9 2 -12 -2z"/>
<path d="M1950 2363 c-131 -61 -343 -149 -413 -173 -38 -12 -66 -24 -63 -27 3
-3 45 4 93 16 49 12 155 34 237 49 l149 27 39 63 c22 34 38 66 36 71 -1 5 -37
-7 -78 -26z"/>
<path d="M2537 2376 c14 -19 19 -21 21 -9 2 9 -2 19 -10 24 -24 16 -29 9 -11
-15z"/>
<path d="M3200 2393 c1 -21 49 -65 64 -60 13 5 24 37 12 37 -2 0 -20 7 -40 15
-20 8 -36 12 -36 8z"/>
<path d="M2770 2356 c-17 -18 -46 -42 -65 -52 -19 -10 -35 -22 -35 -27 0 -9
31 6 85 44 23 15 52 29 65 32 23 4 23 4 -4 6 -24 1 -27 3 -16 16 25 30 0 14
-30 -19z"/>
<path d="M1262 2345 c0 -16 2 -22 5 -12 2 9 2 23 0 30 -3 6 -5 -1 -5 -18z"/>
<path d="M2230 2360 c-8 -6 -27 -7 -42 -4 -28 5 -28 5 -28 -44 0 -27 -3 -78
-6 -113 l-6 -64 51 100 c43 87 48 101 33 107 -14 5 -12 7 6 7 40 2 101 -36
108 -67 3 -15 9 -37 12 -49 l7 -22 33 27 33 28 -68 45 c-76 51 -111 63 -133
49z"/>
<path d="M1366 2345 c-9 -26 -7 -32 5 -12 6 10 9 21 6 23 -2 3 -7 -2 -11 -11z"/>
<path d="M2360 2329 c30 -16 59 -34 64 -39 6 -6 14 -10 20 -10 19 0 -30 43
-69 61 -64 30 -75 21 -15 -12z"/>
<path d="M2860 2340 c8 -5 24 -7 35 -4 15 4 17 3 6 -5 -12 -8 -3 -26 48 -103
34 -51 60 -84 57 -73 -2 11 -8 47 -11 80 -13 122 -8 115 -83 115 -47 0 -62 -3
-52 -10z"/>
<path d="M3034 2314 c40 -62 63 -93 121 -166 58 -74 61 -76 113 -83 30 -4 56
-5 58 -3 9 9 -110 258 -125 262 -9 3 -54 8 -101 12 l-84 7 18 -29z"/>
<path d="M2206 2209 c-33 -65 -58 -121 -55 -123 2 -2 44 27 92 66 87 69 88 70
85 111 -3 35 -7 42 -33 53 l-30 12 -59 -119z"/>
<path d="M2807 2298 c13 -72 30 -94 113 -152 45 -32 84 -56 86 -53 5 5 -84
144 -128 200 -20 24 -38 37 -54 37 -21 0 -23 -3 -17 -32z"/>
<path d="M2738 2292 c-40 -26 -48 -42 -23 -42 9 0 34 -9 55 -20 l40 -20 -10
26 c-6 14 -10 36 -10 49 0 34 -10 36 -52 7z"/>
<path d="M1312 2263 c-27 -29 -46 -59 -52 -86 -14 -62 -13 -72 5 -57 16 13
100 180 93 184 -2 2 -22 -17 -46 -41z"/>
<path d="M3272 2261 c20 -47 23 -49 68 -54 25 -3 123 -31 218 -61 94 -31 188
-56 209 -56 44 0 35 12 -22 30 -22 7 -141 53 -264 101 -122 49 -224 89 -226
89 -2 0 6 -22 17 -49z"/>
<path d="M3014 2270 c18 -134 33 -190 47 -169 14 22 -1 109 -27 159 l-24 45 4
-35z"/>
<path d="M1251 2274 c0 -11 3 -14 6 -6 3 7 2 16 -1 19 -3 4 -6 -2 -5 -13z"/>
<path d="M3710 2276 c0 -2 8 -10 18 -17 15 -13 16 -12 3 4 -13 16 -21 21 -21
13z"/>
<path d="M2402 2214 c-17 -14 -32 -34 -32 -45 0 -23 1 -23 45 -2 34 16 43 35
27 60 -5 9 -17 5 -40 -13z"/>
<path d="M2455 2230 c3 -5 16 -10 28 -10 18 0 19 2 7 10 -20 13 -43 13 -35 0z"/>
<path d="M1241 2214 c0 -11 3 -14 6 -6 3 7 2 16 -1 19 -3 4 -6 -2 -5 -13z"/>
<path d="M1979 2223 c-22 -3 -34 -22 -83 -121 -61 -125 -61 -131 6 -114 25 6
51 31 110 103 45 54 78 103 78 117 0 20 -5 22 -42 21 -24 -1 -55 -4 -69 -6z"/>
<path d="M2118 2217 c-5 -10 -8 -44 -7 -75 0 -48 2 -53 10 -32 5 13 9 47 7 75
-2 34 -5 44 -10 32z"/>
<path d="M2631 2221 c-11 -7 -7 -13 16 -25 33 -16 43 -13 43 16 0 20 -34 25
-59 9z"/>
<path d="M2710 2221 c0 -5 -3 -16 -6 -24 -4 -11 8 -21 42 -36 26 -12 48 -20
49 -19 12 14 13 47 3 51 -7 3 -30 12 -50 21 -21 9 -38 12 -38 7z"/>
<path d="M1775 2195 c-60 -13 -184 -41 -275 -64 -248 -60 -287 -79 -115 -55
236 32 350 29 377 -10 15 -21 8 -83 -16 -154 -23 -66 -21 -93 3 -78 5 3 23 44
40 90 16 47 53 130 81 185 27 55 50 103 50 106 0 9 -32 4 -145 -20z"/>
<path d="M2485 2211 c-20 -4 -26 -9 -17 -14 14 -10 52 0 52 14 0 5 -1 8 -2 8
-2 -1 -16 -4 -33 -8z"/>
<path d="M3073 2194 c3 -10 8 -29 12 -41 3 -13 10 -23 14 -23 5 0 30 -19 57
-42 27 -23 40 -31 28 -18 -12 14 -43 52 -69 84 -26 33 -45 51 -42 40z"/>
<path d="M2245 2130 c-117 -93 -119 -95 -60 -72 149 60 159 67 153 117 -3 27
-4 26 -93 -45z"/>
<path d="M2523 2180 c-24 -10 -43 -24 -43 -29 0 -12 78 -222 85 -229 2 -3 4
59 4 137 0 77 -1 141 -2 141 -1 0 -21 -9 -44 -20z"/>
<path d="M1232 2170 c0 -14 2 -19 5 -12 2 6 2 18 0 25 -3 6 -5 1 -5 -13z"/>
<path d="M2591 2073 l0 -118 25 55 c14 30 34 76 44 101 l19 46 -35 16 c-19 10
-39 17 -44 17 -6 0 -10 -48 -9 -117z"/>
<path d="M2820 2153 c0 -27 5 -30 92 -61 50 -18 93 -31 94 -29 4 4 -149 105
-171 114 -11 4 -15 -3 -15 -24z"/>
<path d="M1420 2150 c-18 -12 -2 -12 25 0 13 6 15 9 5 9 -8 0 -22 -4 -30 -9z"/>
<path d="M2048 2106 c-21 -28 -60 -80 -88 -116 -27 -36 -50 -68 -50 -73 0 -11
77 30 133 70 30 22 47 42 47 55 0 21 0 21 -22 2 -23 -19 -23 -18 0 7 18 20 23
36 20 66 l-3 40 -37 -51z"/>
<path d="M3734 2152 c3 -5 17 -12 32 -15 30 -5 20 8 -15 18 -15 4 -21 3 -17
-3z"/>
<path d="M2387 2124 l-48 -25 28 -22 c15 -11 60 -47 99 -78 l70 -57 -40 104
c-23 57 -45 104 -51 103 -5 0 -32 -11 -58 -25z"/>
<path d="M2671 2087 c-13 -34 -34 -84 -47 -111 l-24 -50 31 30 c17 16 58 59
91 96 l59 67 -37 16 c-20 8 -39 15 -43 15 -3 0 -17 -28 -30 -63z"/>
<path d="M1218 2117 c-3 -19 -2 -25 4 -19 6 6 8 18 6 28 -3 14 -5 12 -10 -9z"/>
<path d="M3090 2089 c0 -13 11 -25 35 -35 55 -23 63 -16 23 21 -43 40 -58 44
-58 14z"/>
<path d="M2776 2081 c-17 -19 -16 -22 30 -88 26 -37 66 -82 88 -98 33 -25 48
-48 76 -115 20 -47 43 -100 53 -117 10 -18 16 -33 13 -33 -7 0 -130 171 -212
293 l-78 118 -62 -68 -62 -68 21 -17 c12 -10 30 -18 40 -18 21 0 155 -98 189
-138 25 -29 187 -156 193 -150 2 1 -2 103 -8 225 -6 123 -12 221 -15 219 -2
-3 -54 13 -115 35 -61 21 -116 39 -122 39 -7 0 -20 -9 -29 -19z"/>
<path d="M2208 2038 l-86 -41 1 -158 c1 -88 2 -159 3 -159 1 0 25 42 54 93 29
50 81 135 115 188 58 89 61 97 44 107 -26 17 -34 15 -131 -30z"/>
<path d="M3715 2039 c-38 -5 -74 -14 -80 -20 -7 -8 8 -9 50 -4 65 7 135 23
135 30 0 6 -15 5 -105 -6z"/>
<path d="M3091 2033 c2 -6 64 -69 138 -139 l134 -129 -78 115 c-43 63 -79 116
-79 117 -1 1 -14 5 -30 9 -23 5 -27 4 -21 -6 5 -8 -9 0 -30 16 -21 16 -36 24
-34 17z"/>
<path d="M3243 2033 c20 -2 54 -2 75 0 20 2 3 4 -38 4 -41 0 -58 -2 -37 -4z"/>
<path d="M1253 2016 c4 -9 0 -19 -9 -24 -15 -8 -15 -12 -1 -38 14 -27 149
-158 198 -192 28 -19 103 -129 134 -194 40 -85 94 -132 108 -95 3 7 -5 51 -17
98 -29 108 -38 154 -29 145 5 -4 18 -44 30 -89 26 -97 28 -81 8 66 -15 117
-19 127 -42 127 -10 0 -14 -6 -10 -20 3 -11 1 -18 -4 -14 -5 3 -9 13 -9 23 0
26 -10 32 -145 85 -111 44 -154 66 -129 66 11 0 259 -101 293 -120 16 -8 21
-8 21 2 0 7 -81 50 -179 94 -211 97 -226 102 -218 80z m387 -267 c0 -5 -4 -9
-10 -9 -5 0 -10 7 -10 16 0 8 5 12 10 9 6 -3 10 -10 10 -16z"/>
<path d="M2302 1922 c-35 -59 -60 -103 -56 -99 10 10 44 -23 44 -43 0 -10 -10
-30 -22 -46 l-23 -29 35 21 c74 45 177 103 228 128 29 15 50 31 47 36 -10 17
-169 140 -180 140 -5 -1 -38 -49 -73 -108z"/>
<path d="M3081 1927 l-2 -73 187 -134 c102 -74 196 -142 207 -150 63 -45 -268
327 -360 404 l-30 25 -2 -72z m149 -85 c0 -9 -59 41 -100 84 -37 39 -33 36 28
-16 39 -35 72 -66 72 -68z"/>
<path d="M3240 1995 c0 -6 177 -263 192 -280 5 -5 1 13 -10 40 -11 28 -34 94
-51 148 l-33 97 -49 0 c-27 0 -49 -2 -49 -5z"/>
<path d="M2058 1963 c-15 -15 -62 -45 -104 -67 -86 -46 -81 -39 -125 -156 -17
-47 -34 -92 -37 -100 -10 -26 53 45 133 149 43 56 80 101 82 101 2 0 -22 -39
-53 -87 -70 -110 -36 -81 48 40 35 49 69 98 76 108 24 31 8 41 -20 12z"/>
<path d="M1853 1957 c-32 -7 -43 -15 -43 -29 0 -10 -7 -34 -14 -53 -18 -42 -6
-45 38 -11 30 23 86 107 69 105 -4 -1 -27 -6 -50 -12z"/>
<path d="M2034 1852 c-46 -67 -59 -92 -53 -107 14 -35 9 -79 -11 -112 -22 -37
-20 -39 18 -19 49 25 72 29 72 13 0 -9 -24 -25 -55 -38 -30 -12 -55 -25 -55
-29 0 -9 136 7 159 19 52 28 104 5 150 -67 43 -68 141 -268 141 -288 0 -10 8
-27 17 -38 9 -12 -37 31 -102 95 -175 170 -155 159 -304 160 -69 0 -153 4
-186 8 -57 8 -74 7 -64 -4 3 -2 89 -10 192 -16 103 -7 187 -17 187 -22 0 -5
-28 -6 -62 -3 -118 10 -234 15 -193 7 57 -10 165 -67 211 -110 101 -95 227
-201 269 -225 25 -15 69 -31 96 -35 l51 -8 -178 171 c-113 109 -175 177 -172
186 3 10 70 -50 203 -180 191 -188 198 -194 192 -157 -3 20 -27 83 -53 140
-58 127 -191 447 -200 482 -3 14 -8 25 -10 25 -2 0 -42 -23 -91 -50 -48 -28
-94 -48 -102 -45 -12 5 -13 31 -7 170 3 91 5 165 3 165 -1 0 -30 -40 -63 -88z"/>
<path d="M3507 1895 c-10 -14 -13 -25 -7 -25 7 0 9 -35 6 -102 l-5 -103 10 85
c5 47 13 104 18 128 9 48 4 52 -22 17z"/>
<path d="M2606 1872 c5 -5 38 -30 74 -57 87 -65 120 -96 120 -114 0 -10 -9 -6
-30 14 -22 21 -31 25 -35 14 -2 -8 -13 -41 -23 -74 l-18 -60 26 -29 27 -28 23
56 c23 55 47 77 37 34 -5 -20 3 -27 71 -57 42 -18 96 -38 120 -45 23 -6 42
-14 42 -19 0 -5 -98 -110 -217 -233 -120 -124 -219 -230 -221 -237 -2 -7 102
96 232 228 129 132 235 245 236 251 0 5 -15 24 -32 40 -44 41 -423 324 -434
324 -4 0 -4 -4 2 -8z"/>
<path d="M2547 1848 c-16 -12 -16 -18 2 -103 l19 -90 1 71 c1 39 4 86 7 103 7
33 -2 39 -29 19z"/>
<path d="M2594 1692 c0 -86 1 -149 3 -139 5 18 5 18 19 0 7 -10 14 -27 14 -38
1 -20 90 208 90 230 0 6 -15 22 -32 35 -18 13 -46 34 -63 46 l-30 22 -1 -156z"/>
<path d="M2452 1794 c-54 -31 -62 -39 -56 -57 16 -51 106 -256 120 -273 14
-17 15 -12 11 66 -4 61 -3 74 3 45 5 -22 9 -89 10 -150 1 -60 5 -128 9 -150
23 -110 2 353 -22 487 l-12 67 -63 -35z"/>
<path d="M1690 1807 c0 -7 5 -40 11 -73 7 -32 12 -90 12 -128 0 -44 3 -63 8
-53 18 32 109 261 105 264 -2 3 -18 -3 -35 -12 -28 -14 -34 -14 -61 0 -36 18
-40 19 -40 2z"/>
<path d="M3083 1785 c4 -22 7 -48 7 -57 0 -10 6 -18 14 -18 8 0 75 -30 150
-66 74 -36 141 -64 147 -62 7 2 -42 42 -107 88 -66 46 -141 100 -168 119 l-49
35 6 -39z"/>
<path d="M3375 1740 c10 -11 20 -20 23 -20 3 0 -3 9 -13 20 -10 11 -20 20 -23
20 -3 0 3 -9 13 -20z"/>
<path d="M2337 1725 c-24 -17 -27 -6 104 -325 70 -172 98 -232 94 -200 -3 25
-8 79 -11 120 -3 41 -11 89 -19 105 -8 17 -41 93 -74 170 -33 77 -63 141 -68
142 -4 1 -16 -4 -26 -12z"/>
<path d="M3492 1640 c0 -14 2 -19 5 -12 2 6 2 18 0 25 -3 6 -5 1 -5 -13z"/>
<path d="M1720 1460 c0 -5 5 -10 11 -10 5 0 7 5 4 10 -3 6 -8 10 -11 10 -2 0
-4 -4 -4 -10z"/>
<path d="M3389 1446 c-2 -2 -51 -14 -108 -25 l-103 -22 -192 -136 c-275 -197
-378 -274 -372 -280 4 -5 408 282 519 369 28 22 65 36 140 53 56 13 118 28
137 33 31 9 32 10 9 11 -14 1 -28 -1 -30 -3z"/>
<path d="M1768 1423 c7 -3 16 -2 19 1 4 3 -2 6 -13 5 -11 0 -14 -3 -6 -6z"/>
</g>
</svg>